<svg width="80" height="77" viewBox="0 0 80 77" fill="none" xmlns="http://www.w3.org/2000/svg">
<path d="M78 38.5C78 36.1111 77.7551 33.7222 77.2698 31.3792C76.7847 29.0362 76.0592 26.7391 75.1074 24.532C74.1557 22.325 72.9777 20.208 71.5958 18.2217C70.2141 16.2354 68.6286 14.3798 66.8701 12.6906C65.1114 11.0014 63.1796 9.47857 61.1116 8.15139C59.0437 6.82408 56.8397 5.69258 54.542 4.77843C52.2442 3.86416 49.8527 3.16737 47.4134 2.70136C44.9742 2.23522 42.487 2 40 2C37.513 2 35.0258 2.23522 32.5866 2.70136C30.1473 3.16737 27.7558 3.86416 25.458 4.77843C23.1603 5.69258 20.9563 6.82408 18.8884 8.15139C16.8204 9.47857 14.8886 11.0014 13.1299 12.6906C11.3714 14.3798 9.78591 16.2354 8.40419 18.2217C7.02233 20.208 5.84433 22.325 4.89262 24.532C3.94077 26.7391 3.21534 29.0362 2.73018 31.3792C2.24489 33.7222 2 36.1111 2 38.5C2 40.8888 2.24489 43.2778 2.73018 45.6208C3.21534 47.9638 3.94077 50.2609 4.89262 52.468C5.84433 54.6749 7.02233 56.7919 8.40419 58.7783C9.78591 60.7646 11.3714 62.6202 13.1299 64.3094C14.8886 65.9986 16.8204 67.5214 18.8884 68.8486C20.9563 70.1759 23.1603 71.3074 25.458 72.2216C27.7558 73.1358 30.1473 73.8326 32.5866 74.2986C35.0258 74.7648 37.513 75 40 75C42.487 75 44.9742 74.7648 47.4134 74.2986C49.8527 73.8326 52.2442 73.1358 54.542 72.2216C56.8397 71.3074 59.0437 70.1759 61.1116 68.8486C63.1796 67.5214 65.1114 65.9986 66.8701 64.3094C68.6286 62.6202 70.2141 60.7646 71.5958 58.7783C72.9777 56.7919 74.1557 54.6749 75.1074 52.468C76.0592 50.2609 76.7847 47.9638 77.2698 45.6208C77.7551 43.2778 78 40.8888 78 38.5Z" fill="#1E859B" stroke="#72CFE3" stroke-width="3.932" stroke-miterlimit="10"/>
<path d="M20.3515 38.5C20.3515 37.2494 19.8121 35.9987 18.8915 35.1144C17.9708 34.23 16.6687 33.7119 15.3666 33.7119C14.0646 33.7119 12.7626 34.23 11.8419 35.1144C10.9212 35.9987 10.3819 37.2494 10.3819 38.5C10.3819 39.7506 10.9212 41.0013 11.8419 41.8856C12.7626 42.77 14.0646 43.2881 15.3666 43.2881C16.6687 43.2881 17.9708 42.77 18.8915 41.8856C19.8121 41.0013 20.3515 39.7506 20.3515 38.5Z" fill="white" stroke="#085D70" stroke-width="3.932" stroke-miterlimit="10"/>
<path d="M49.8242 54.8444C48.6966 55.4697 47.8387 56.5437 47.5017 57.7517C47.1647 58.9598 47.3486 60.3019 47.9997 61.385C48.6507 62.4681 49.7688 63.2922 51.0265 63.6159C52.2842 63.9396 53.6815 63.7629 54.8091 63.1376C55.9366 62.5122 56.7947 61.4382 57.1317 60.2302C57.4687 59.0222 57.2847 57.6801 56.6337 56.597C55.9826 55.5138 54.8645 54.6898 53.6068 54.3661C52.3491 54.0424 50.9519 54.2191 49.8242 54.8444Z" fill="white" stroke="#085D70" stroke-width="3.932" stroke-miterlimit="10"/>
<path d="M49.8242 22.1556C50.9519 22.7809 52.3491 22.9576 53.6068 22.6339C54.8645 22.3102 55.9826 21.4862 56.6337 20.403C57.2847 19.3199 57.4687 17.9777 57.1317 16.7698C56.7947 15.5618 55.9366 14.4878 54.8091 13.8624C53.6815 13.237 52.2842 13.0604 51.0265 13.3841C49.7688 13.7077 48.6507 14.5319 47.9997 15.615C47.3486 16.6981 47.1647 18.0402 47.5017 19.2483C47.8387 20.4563 48.6966 21.5303 49.8242 22.1556Z" fill="white" stroke="#085D70" stroke-width="3.932" stroke-miterlimit="10"/>
<path d="M56.5721 53.0549C56.4863 53.1449 56.3853 53.2213 56.2686 53.284C56.0355 53.4094 55.7864 53.4557 55.5214 53.4231C55.3889 53.4066 55.2653 53.3721 55.1508 53.3193C54.2045 52.8829 53.1289 52.6666 52.0675 52.7043C51.006 52.7421 49.9588 53.0341 49.0418 53.5427C48.1247 54.0512 47.3378 54.7763 46.7731 55.6404C46.2084 56.5044 45.8657 57.5074 45.7859 58.5126C45.7761 58.6343 45.7457 58.7545 45.6941 58.8728C45.5911 59.1096 45.4248 59.2937 45.1952 59.4249C45.0804 59.4905 44.9608 59.5364 44.8368 59.5628C43.589 59.8272 42.3175 59.9876 41.0222 60.0444C38.4314 60.1577 35.8965 59.8493 33.4172 59.119C32.1775 58.7538 30.9878 58.2938 29.8479 57.7389L33.7503 51.2467C35.8613 52.2017 38.2533 52.6696 40.612 52.5773C42.9707 52.485 45.296 51.8323 47.3343 50.7019C49.3725 49.5715 51.1237 47.9636 52.3863 46.0478C53.649 44.1319 54.423 41.9081 54.6175 39.6746H62.4221C62.3526 40.9001 62.1725 42.1198 61.8818 43.3336C61.3006 45.7612 60.3113 48.0241 58.9137 50.1225C58.2149 51.1716 57.4343 52.149 56.5721 53.0549Z" fill="white" stroke="#085D70" stroke-width="3.932" stroke-miterlimit="10"/>
<path d="M44.8368 17.4372C44.9608 17.4636 45.0804 17.5095 45.1952 17.5751C45.4248 17.7063 45.5911 17.8904 45.6941 18.1272C45.7457 18.2455 45.7761 18.3657 45.7859 18.4874C45.8657 19.4926 46.2084 20.4956 46.7731 21.3596C47.3378 22.2237 48.1247 22.9488 49.0418 23.4574C49.9589 23.9659 51.0061 24.2579 52.0675 24.2957C53.1289 24.3334 54.2045 24.1171 55.1508 23.6807C55.2653 23.6279 55.3889 23.5934 55.5214 23.5769C55.7864 23.5442 56.0355 23.5906 56.2686 23.716C56.3853 23.7787 56.4863 23.8551 56.5721 23.9451C57.4343 24.851 58.2149 25.8284 58.9137 26.8775C60.3111 28.9759 61.3006 31.2388 61.8818 33.6664C62.1725 34.8802 62.3526 36.0999 62.4221 37.3254H54.6175C54.423 35.0919 53.6489 32.8681 52.3863 30.9522C51.1237 29.0364 49.3725 27.4285 47.3343 26.2981C45.296 25.1677 42.9706 24.515 40.612 24.4227C38.2533 24.3304 35.8613 24.7983 33.7503 25.7533L29.8479 19.2611C30.9878 18.7062 32.1774 18.2462 33.4172 17.881C35.8965 17.1507 38.4314 16.8423 41.022 16.9556C42.3175 17.0123 43.589 17.1728 44.8368 17.4372Z" fill="white" stroke="#085D70" stroke-width="3.932" stroke-miterlimit="10"/>
<path d="M18.5911 45.0079C18.5527 44.8916 18.5345 44.7693 18.5362 44.6409C18.5398 44.3842 18.6225 44.1539 18.7845 43.9498C18.8655 43.8478 18.9584 43.7623 19.0633 43.6934C19.9299 43.1243 20.6627 42.3378 21.1594 41.4361C21.656 40.5342 21.9165 39.5171 21.9165 38.5C21.9165 37.4828 21.656 36.4658 21.1594 35.5639C20.6627 34.6622 19.9299 33.8757 19.0633 33.3066C18.9584 33.2377 18.8655 33.1522 18.7845 33.0502C18.6225 32.846 18.5398 32.6158 18.5362 32.3591C18.5345 32.2307 18.5527 32.1084 18.5911 31.9921C18.9766 30.8219 19.4677 29.6839 20.0642 28.5781C21.2573 26.3664 22.8029 24.4119 24.701 22.7146C25.6501 21.866 26.6598 21.1064 27.7298 20.4357L31.6322 26.9279C29.7157 28.2064 28.0978 29.9622 27.0018 31.9704C25.9056 33.9787 25.3315 36.2393 25.3315 38.5C25.3315 40.7607 25.9056 43.0213 27.0018 45.0296C28.0978 47.0378 29.7157 48.7936 31.6322 50.0721L27.7298 56.5643C26.6598 55.8936 25.6501 55.134 24.701 54.2854C22.8029 52.5881 21.2573 50.6336 20.0642 48.4219C19.4677 47.3161 18.9766 46.1781 18.5911 45.0079Z" fill="white" stroke="#085D70" stroke-width="3.932" stroke-miterlimit="10"/>
<path d="M39.3821 46.6364V30.2727H40.4304V46.6364H39.3821ZM42.4055 35.5078C42.3459 34.9496 42.0945 34.5149 41.6513 34.2038C41.2124 33.8928 40.6413 33.7372 39.9382 33.7372C39.4439 33.7372 39.0199 33.8118 38.6662 33.9609C38.3125 34.1101 38.0419 34.3125 37.8544 34.5682C37.6669 34.8239 37.571 35.1158 37.5668 35.4439C37.5668 35.7166 37.6286 35.9531 37.7521 36.1534C37.88 36.3537 38.0526 36.5241 38.2699 36.6648C38.4872 36.8011 38.728 36.9162 38.9922 37.0099C39.2564 37.1037 39.5227 37.1825 39.7912 37.2464L41.0185 37.5533C41.5128 37.6683 41.9879 37.8239 42.4439 38.0199C42.9041 38.2159 43.3153 38.4631 43.6776 38.7614C44.044 39.0597 44.3338 39.4197 44.5469 39.8416C44.7599 40.2635 44.8665 40.7578 44.8665 41.3246C44.8665 42.0916 44.6705 42.767 44.2784 43.3509C43.8864 43.9304 43.3196 44.3842 42.5781 44.7124C41.8409 45.0362 40.9482 45.1982 39.8999 45.1982C38.8814 45.1982 37.9972 45.0405 37.2472 44.7251C36.5014 44.4098 35.9176 43.9496 35.4957 43.3445C35.0781 42.7393 34.8523 42.0021 34.8182 41.1328H37.1513C37.1854 41.5888 37.326 41.968 37.5732 42.2706C37.8203 42.5732 38.142 42.799 38.5384 42.9482C38.9389 43.0973 39.3864 43.1719 39.8807 43.1719C40.3963 43.1719 40.848 43.0952 41.2358 42.9418C41.6278 42.7841 41.9347 42.5668 42.1562 42.2898C42.3778 42.0085 42.4908 41.6804 42.495 41.3054C42.4908 40.9645 42.3906 40.6832 42.1946 40.4616C41.9986 40.2358 41.7237 40.0483 41.37 39.8991C41.0206 39.7457 40.6115 39.6094 40.1428 39.4901L38.6534 39.1065C37.5753 38.8295 36.723 38.4098 36.0966 37.8473C35.4744 37.2805 35.1634 36.5284 35.1634 35.5909C35.1634 34.8196 35.3722 34.1442 35.7898 33.5646C36.2116 32.9851 36.7848 32.5355 37.5092 32.2159C38.2337 31.892 39.054 31.7301 39.9702 31.7301C40.8991 31.7301 41.7131 31.892 42.4119 32.2159C43.1151 32.5355 43.6669 32.9808 44.0675 33.5518C44.468 34.1186 44.6747 34.7706 44.6875 35.5078H42.4055Z" fill="#AAD57D"/>
</svg>
